<svg width="16" height="16" viewBox="0 0 16 16" fill="none" xmlns="http://www.w3.org/2000/svg">
<path fill-rule="evenodd" clip-rule="evenodd" d="M6.5 11C6.5 11.4125 6.1625 11.75 5.75 11.75C5.3375 11.75 5 11.4125 5 11V8.00002C5 7.58752 5.3375 7.25002 5.75 7.25002C6.1625 7.25002 6.5 7.58752 6.5 8.00002V11ZM11 11C11 11.4125 10.6625 11.75 10.25 11.75C9.8375 11.75 9.5 11.4125 9.5 11V8.00002C9.5 7.58752 9.8375 7.25002 10.25 7.25002C10.6625 7.25002 11 7.58752 11 8.00002V11ZM12.5 13.25C12.5 13.6633 12.164 14 11.75 14H4.25003C3.83603 14 3.50003 13.6633 3.50003 13.25V5.00002H12.5V13.25ZM6.49997 2.24603C6.49997 2.12978 6.66047 2.00003 6.87497 2.00003H9.12497C9.33947 2.00003 9.49997 2.12978 9.49997 2.24603V3.50003H6.49997V2.24603ZM14.75 3.50002H14H11V2.24602C11 1.28302 10.1593 0.500015 9.125 0.500015H6.875C5.84075 0.500015 5 1.28302 5 2.24602V3.50002H2H1.25C0.8375 3.50002 0.5 3.83752 0.5 4.25002C0.5 4.66252 0.8375 5.00002 1.25 5.00002H2V13.25C2 14.4905 3.0095 15.5 4.25 15.5H11.75C12.9905 15.5 14 14.4905 14 13.25V5.00002H14.75C15.1625 5.00002 15.5 4.66252 15.5 4.25002C15.5 3.83752 15.1625 3.50002 14.75 3.50002Z" fill="#808080"/>
</svg>
